<svg id="visual" viewBox="0 0 1920 1080" width="1920" height="1080" xmlns="http://www.w3.org/2000/svg" xmlns:xlink="http://www.w3.org/1999/xlink" version="1.1"><rect x="0" y="0" width="1920" height="1080" fill="#001220"></rect><defs><linearGradient id="grad1_0" x1="43.8%" y1="0%" x2="100%" y2="100%"><stop offset="14.444444444444446%" stop-color="#54b236" stop-opacity="1"></stop><stop offset="85.55555555555554%" stop-color="#54b236" stop-opacity="1"></stop></linearGradient></defs><defs><linearGradient id="grad1_1" x1="43.8%" y1="0%" x2="100%" y2="100%"><stop offset="14.444444444444446%" stop-color="#54b236" stop-opacity="1"></stop><stop offset="85.55555555555554%" stop-color="#009954" stop-opacity="1"></stop></linearGradient></defs><defs><linearGradient id="grad1_2" x1="43.8%" y1="0%" x2="100%" y2="100%"><stop offset="14.444444444444446%" stop-color="#007e64" stop-opacity="1"></stop><stop offset="85.55555555555554%" stop-color="#009954" stop-opacity="1"></stop></linearGradient></defs><defs><linearGradient id="grad1_3" x1="43.8%" y1="0%" x2="100%" y2="100%"><stop offset="14.444444444444446%" stop-color="#007e64" stop-opacity="1"></stop><stop offset="85.55555555555554%" stop-color="#006266" stop-opacity="1"></stop></linearGradient></defs><defs><linearGradient id="grad1_4" x1="43.8%" y1="0%" x2="100%" y2="100%"><stop offset="14.444444444444446%" stop-color="#004659" stop-opacity="1"></stop><stop offset="85.55555555555554%" stop-color="#006266" stop-opacity="1"></stop></linearGradient></defs><defs><linearGradient id="grad1_5" x1="43.8%" y1="0%" x2="100%" y2="100%"><stop offset="14.444444444444446%" stop-color="#004659" stop-opacity="1"></stop><stop offset="85.55555555555554%" stop-color="#002b40" stop-opacity="1"></stop></linearGradient></defs><defs><linearGradient id="grad1_6" x1="43.8%" y1="0%" x2="100%" y2="100%"><stop offset="14.444444444444446%" stop-color="#001220" stop-opacity="1"></stop><stop offset="85.55555555555554%" stop-color="#002b40" stop-opacity="1"></stop></linearGradient></defs><defs><linearGradient id="grad2_0" x1="0%" y1="0%" x2="56.3%" y2="100%"><stop offset="14.444444444444446%" stop-color="#54b236" stop-opacity="1"></stop><stop offset="85.55555555555554%" stop-color="#54b236" stop-opacity="1"></stop></linearGradient></defs><defs><linearGradient id="grad2_1" x1="0%" y1="0%" x2="56.3%" y2="100%"><stop offset="14.444444444444446%" stop-color="#009954" stop-opacity="1"></stop><stop offset="85.55555555555554%" stop-color="#54b236" stop-opacity="1"></stop></linearGradient></defs><defs><linearGradient id="grad2_2" x1="0%" y1="0%" x2="56.3%" y2="100%"><stop offset="14.444444444444446%" stop-color="#009954" stop-opacity="1"></stop><stop offset="85.55555555555554%" stop-color="#007e64" stop-opacity="1"></stop></linearGradient></defs><defs><linearGradient id="grad2_3" x1="0%" y1="0%" x2="56.3%" y2="100%"><stop offset="14.444444444444446%" stop-color="#006266" stop-opacity="1"></stop><stop offset="85.55555555555554%" stop-color="#007e64" stop-opacity="1"></stop></linearGradient></defs><defs><linearGradient id="grad2_4" x1="0%" y1="0%" x2="56.3%" y2="100%"><stop offset="14.444444444444446%" stop-color="#006266" stop-opacity="1"></stop><stop offset="85.55555555555554%" stop-color="#004659" stop-opacity="1"></stop></linearGradient></defs><defs><linearGradient id="grad2_5" x1="0%" y1="0%" x2="56.3%" y2="100%"><stop offset="14.444444444444446%" stop-color="#002b40" stop-opacity="1"></stop><stop offset="85.55555555555554%" stop-color="#004659" stop-opacity="1"></stop></linearGradient></defs><defs><linearGradient id="grad2_6" x1="0%" y1="0%" x2="56.3%" y2="100%"><stop offset="14.444444444444446%" stop-color="#002b40" stop-opacity="1"></stop><stop offset="85.55555555555554%" stop-color="#001220" stop-opacity="1"></stop></linearGradient></defs><g transform="translate(1920, 0)"><path d="M0 648C-72.3 610.5 -144.6 573 -226.9 547.9C-309.3 522.8 -401.7 510.1 -458.2 458.2C-514.7 406.3 -535.2 315.2 -560.8 232.3C-586.4 149.4 -617.2 74.7 -648 0L0 0Z" fill="#001e30"></path><path d="M0 555.4C-62 523.3 -123.9 491.1 -194.5 469.6C-265.1 448.1 -344.3 437.2 -392.7 392.7C-441.1 348.3 -458.7 270.2 -480.7 199.1C-502.7 128 -529 64 -555.4 0L0 0Z" fill="#00384e"></path><path d="M0 462.9C-51.6 436.1 -103.3 409.3 -162.1 391.3C-220.9 373.4 -287 364.4 -327.3 327.3C-367.6 290.2 -382.3 225.1 -400.6 165.9C-418.9 106.7 -440.9 53.4 -462.9 0L0 0Z" fill="#005462"></path><path d="M0 370.3C-41.3 348.8 -82.6 327.4 -129.7 313.1C-176.7 298.7 -229.6 291.5 -261.8 261.8C-294.1 232.2 -305.8 180.1 -320.5 132.7C-335.1 85.4 -352.7 42.7 -370.3 0L0 0Z" fill="#007067"></path><path d="M0 277.7C-31 261.6 -62 245.6 -97.3 234.8C-132.6 224 -172.2 218.6 -196.4 196.4C-220.6 174.1 -229.4 135.1 -240.3 99.6C-251.3 64 -264.5 32 -277.7 0L0 0Z" fill="#008c5e"></path><path d="M0 185.1C-20.7 174.4 -41.3 163.7 -64.8 156.5C-88.4 149.4 -114.8 145.7 -130.9 130.9C-147 116.1 -152.9 90.1 -160.2 66.4C-167.6 42.7 -176.3 21.3 -185.1 0L0 0Z" fill="#1ea647"></path><path d="M0 92.6C-10.3 87.2 -20.7 81.9 -32.4 78.3C-44.2 74.7 -57.4 72.9 -65.5 65.5C-73.5 58 -76.5 45 -80.1 33.2C-83.8 21.3 -88.2 10.7 -92.6 0L0 0Z" fill="#54b236"></path></g><g transform="translate(0, 1080)"><path d="M0 -648C70.3 -606 140.5 -563.9 223.5 -539.5C306.4 -515.2 402 -508.5 458.2 -458.2C514.4 -407.9 531.1 -314 556.2 -230.4C581.2 -146.7 614.6 -73.4 648 0L0 0Z" fill="#001e30"></path><path d="M0 -555.4C60.2 -519.4 120.5 -483.4 191.6 -462.5C262.7 -441.6 344.6 -435.9 392.7 -392.7C440.9 -349.6 455.2 -269.2 476.7 -197.5C498.2 -125.8 526.8 -62.9 555.4 0L0 0Z" fill="#00384e"></path><path d="M0 -462.9C50.2 -432.8 100.4 -402.8 159.6 -385.4C218.9 -368 287.2 -363.2 327.3 -327.3C367.4 -291.4 379.4 -224.3 397.3 -164.6C415.2 -104.8 439 -52.4 462.9 0L0 0Z" fill="#005462"></path><path d="M0 -370.3C40.2 -346.3 80.3 -322.2 127.7 -308.3C175.1 -294.4 229.7 -290.6 261.8 -261.8C293.9 -233.1 303.5 -179.4 317.8 -131.6C332.1 -83.9 351.2 -41.9 370.3 0L0 0Z" fill="#007067"></path><path d="M0 -277.7C30.1 -259.7 60.2 -241.7 95.8 -231.2C131.3 -220.8 172.3 -217.9 196.4 -196.4C220.4 -174.8 227.6 -134.6 238.4 -98.7C249.1 -62.9 263.4 -31.4 277.7 0L0 0Z" fill="#008c5e"></path><path d="M0 -185.1C20.1 -173.1 40.2 -161.1 63.9 -154.2C87.6 -147.2 114.9 -145.3 130.9 -130.9C147 -116.5 151.7 -89.7 158.9 -65.8C166.1 -41.9 175.6 -21 185.1 0L0 0Z" fill="#1ea647"></path><path d="M0 -92.6C10 -86.6 20.1 -80.6 31.9 -77.1C43.8 -73.6 57.4 -72.6 65.5 -65.5C73.5 -58.3 75.9 -44.9 79.5 -32.9C83 -21 87.8 -10.5 92.6 0L0 0Z" fill="#54b236"></path></g></svg>