<svg id="visual" viewBox="0 0 1920 1080" width="1920" height="1080" xmlns="http://www.w3.org/2000/svg" xmlns:xlink="http://www.w3.org/1999/xlink" version="1.1"><rect x="0" y="0" width="1920" height="1080" fill="#002233"></rect><path d="M0 882L53.3 874.7C106.7 867.3 213.3 852.7 320 843.2C426.7 833.7 533.3 829.3 640 838C746.7 846.7 853.3 868.3 960 882C1066.7 895.7 1173.3 901.3 1280 893.7C1386.7 886 1493.3 865 1600 859C1706.7 853 1813.3 862 1866.7 866.5L1920 871L1920 1081L1866.7 1081C1813.3 1081 1706.7 1081 1600 1081C1493.3 1081 1386.7 1081 1280 1081C1173.3 1081 1066.7 1081 960 1081C853.3 1081 746.7 1081 640 1081C533.3 1081 426.7 1081 320 1081C213.3 1081 106.7 1081 53.3 1081L0 1081Z" fill="#54b236" stroke-linecap="round" stroke-linejoin="miter"></path></svg>