<svg id="visual" viewBox="0 0 1920 1080" width="1920" height="1080" xmlns="http://www.w3.org/2000/svg" xmlns:xlink="http://www.w3.org/1999/xlink" version="1.1"><rect x="0" y="0" width="1920" height="1080" fill="#002233"></rect><path d="M0 783L53.3 772C106.7 761 213.3 739 320 725C426.7 711 533.3 705 640 718C746.7 731 853.3 763 960 783.3C1066.7 803.7 1173.3 812.3 1280 800.8C1386.7 789.3 1493.3 757.7 1600 748.7C1706.7 739.7 1813.3 753.3 1866.7 760.2L1920 767L1920 1081L1866.7 1081C1813.3 1081 1706.7 1081 1600 1081C1493.3 1081 1386.7 1081 1280 1081C1173.3 1081 1066.7 1081 960 1081C853.3 1081 746.7 1081 640 1081C533.3 1081 426.7 1081 320 1081C213.3 1081 106.7 1081 53.3 1081L0 1081Z" fill="#54b236" stroke-linecap="round" stroke-linejoin="miter"></path></svg>