<svg id="visual" viewBox="0 0 1920 1080" width="1920" height="1080" xmlns="http://www.w3.org/2000/svg" xmlns:xlink="http://www.w3.org/1999/xlink" version="1.1"><rect x="0" y="0" width="1920" height="1080" fill="#002233"></rect><path d="M0 744L80 756.8C160 769.7 320 795.3 480 792C640 788.7 800 756.3 960 731.8C1120 707.3 1280 690.7 1440 683.8C1600 677 1760 680 1840 681.5L1920 683L1920 1081L1840 1081C1760 1081 1600 1081 1440 1081C1280 1081 1120 1081 960 1081C800 1081 640 1081 480 1081C320 1081 160 1081 80 1081L0 1081Z" fill="#54b236" stroke-linecap="round" stroke-linejoin="miter"></path></svg>